<svg width="48" height="45" viewBox="0 0 48 45" fill="none" xmlns="http://www.w3.org/2000/svg">
<path d="M40.5001 36.6998H10.2001C9.7001 36.6998 9.3001 36.4998 9.1001 36.0998C8.8001 35.6998 8.8001 35.1998 9.0001 34.7998L11.6001 28.1998L9.0001 3.59982H0.600098V0.799805H10.2001C10.9001 0.799805 11.5001 1.29982 11.6001 1.99982L14.4001 28.0998C14.4001 28.2998 14.4001 28.4998 14.3001 28.7998L12.3001 33.7998H40.5001V36.6998Z" fill="#134563"/>
<path d="M13.3001 29.7999L12.7001 27.0999L44.6001 20.4999V9.19992H11.6001V6.3999H46.0001C46.8001 6.3999 47.4001 6.9999 47.4001 7.7999V21.5999C47.4001 22.2999 46.9001 22.7999 46.3001 22.8999L13.3001 29.7999Z" fill="#134563"/>
<path d="M41.8999 45C38.8999 45 36.3999 42.5 36.3999 39.5C36.3999 36.5 38.8999 34 41.8999 34C44.8999 34 47.3999 36.5 47.3999 39.5C47.3999 42.5 44.8999 45 41.8999 45ZM41.8999 36.7C40.3999 36.7 39.0999 37.9 39.0999 39.5C39.0999 41.1 40.2999 42.3 41.8999 42.3C43.4999 42.3 44.6999 41.1 44.6999 39.5C44.6999 37.9 43.3999 36.7 41.8999 36.7Z" fill="#134563"/>
<path d="M8.8999 45C5.8999 45 3.3999 42.5 3.3999 39.5C3.3999 36.5 5.8999 34 8.8999 34C11.8999 34 14.3999 36.5 14.3999 39.5C14.3999 42.5 11.8999 45 8.8999 45ZM8.8999 36.7C7.3999 36.7 6.0999 37.9 6.0999 39.5C6.0999 41.1 7.2999 42.3 8.8999 42.3C10.4999 42.3 11.6999 41.1 11.6999 39.5C11.6999 37.9 10.3999 36.7 8.8999 36.7Z" fill="#134563"/>
</svg>
