<svg id="Layer_1" data-name="Layer 1" xmlns="http://www.w3.org/2000/svg" viewBox="0 0 24 24"><defs><style>.cls-1{fill:#fff;}</style></defs><rect class="cls-1" width="24" height="24" rx="3.97"/><path d="M12,3.87c2.65,0,3,0,4,0C18.7,4.05,20,5.32,20.08,8c.05,1,.05,1.36.05,4s0,3-.05,4C20,18.68,18.7,20,16,20.08c-1.05.05-1.36.06-4,.06s-3,0-4-.06C5.29,20,4.05,18.67,3.92,16c0-1.05,0-1.36,0-4s0-3,0-4C4.05,5.32,5.3,4.05,8,3.92,9,3.88,9.35,3.87,12,3.87Zm0-1.79c-2.69,0-3,0-4.09.06C4.31,2.3,2.3,4.3,2.14,7.91,2.09,9,2.08,9.31,2.08,12s0,3,.06,4.09c.16,3.6,2.16,5.61,5.77,5.77,1.06.05,1.4.06,4.09.06s3,0,4.09-.06c3.6-.16,5.61-2.16,5.77-5.77.05-1.06.06-1.4.06-4.09s0-3-.06-4.09c-.16-3.6-2.16-5.61-5.77-5.77C15,2.09,14.69,2.08,12,2.08ZM12,6.9A5.1,5.1,0,1,0,17.1,12,5.11,5.11,0,0,0,12,6.9Zm0,8.41A3.31,3.31,0,1,1,15.31,12,3.31,3.31,0,0,1,12,15.31Zm5.3-9.8A1.19,1.19,0,1,0,18.49,6.7,1.19,1.19,0,0,0,17.3,5.51Z" transform="translate(0)"/></svg>