<svg id="Layer_1" data-name="Layer 1" xmlns="http://www.w3.org/2000/svg" viewBox="0 0 286.56 191.93"><defs><style>.cls-1{fill:#fff;}.cls-2{fill:#05303f;}</style></defs><g id="fish"><path id="path237" class="cls-1" d="M24.54,86c-9.6,0-23.46,5.45-23.46,5.45a1.43,1.43,0,0,0-.53,2.52L22.9,116.51a2.35,2.35,0,0,1,0,3.31L.55,142.39a1.43,1.43,0,0,0,.53,2.52s13.86,5.45,23.46,5.45c23.82,0,43.13-14.41,43.13-32.19S48.36,86,24.54,86Z" transform="translate(0 0)"/><path id="path239" class="cls-1" d="M286.56,118.16c0,40.74-50,73.77-111.75,73.77s-111.75-33-111.75-73.77,50-73.77,111.75-73.77S286.56,77.42,286.56,118.16Z" transform="translate(0 0)"/><g id="g241"><path id="path243" class="cls-2" d="M280.06,117.79c0-28-27.79-51.7-66.15-59.76-7.73,25.22-17,75.85,15.31,115.29,30.23-10.49,50.84-31.42,50.84-55.53Z" transform="translate(0 0)"/><path id="path245" class="cls-1" d="M253,101.2a6.39,6.39,0,1,1-6.39-6.31A6.35,6.35,0,0,1,253,101.2Z" transform="translate(0 0)"/><g id="g247"><path id="path249" class="cls-2" d="M219.36,175c-17.73-21.62-23.13-46.54-23.13-68.82a166.76,166.76,0,0,1,7.53-47.94,1.59,1.59,0,1,1,3,.93,163.31,163.31,0,0,0-7.4,47c0,21.79,5.26,45.89,22.42,66.81a1.59,1.59,0,0,1-1.23,2.59,1.53,1.53,0,0,1-1.24-.58Z" transform="translate(0 0)"/><path id="path251" class="cls-2" d="M208.37,175.86c-17.73-21.62-23.14-46.54-23.13-68.82a166.84,166.84,0,0,1,7.53-47.95h0a1.59,1.59,0,0,1,3,.93,163.39,163.39,0,0,0-7.4,47c0,21.79,5.26,45.89,22.41,66.81a1.59,1.59,0,0,1-1.22,2.59,1.6,1.6,0,0,1-1.23-.58Z" transform="translate(0 0)"/></g></g><path id="path253" class="cls-1" d="M175.36,40.22a167.88,167.88,0,0,1,22.46,1.56c.85-.1,1.05-.75.41-1.61L169.18,1a2.39,2.39,0,0,0-3.29-.51L142.46,17.21a4.32,4.32,0,0,1-4,.32L111.67,4.29A1.85,1.85,0,0,0,109,5.5L93.83,61.34c-.23.83,0,1.35.55,1.44,20.32-13.91,48.85-22.56,80.43-22.56Z" transform="translate(0 0)"/></g></svg>